<svg width="1052" height="183" viewBox="0 0 1052 183" fill="none" xmlns="http://www.w3.org/2000/svg">
<path fill-rule="evenodd" clip-rule="evenodd" d="M119.555 45.8402L113.597 49.8591L134.333 20.169C137.083 16.0448 136.739 10.5458 133.302 7.10897C129.178 3.67212 123.679 3.32842 119.555 6.07791L76.2505 35.2912C75.2195 35.9785 74.1885 37.0096 73.5011 38.0407L71.7827 40.4464C69.7206 43.1959 65.94 43.1959 63.8779 40.4464L62.5031 38.3843C61.8158 37.3532 60.7847 36.3222 59.7537 35.6349L17.1367 5.73421C13.3562 3.3284 8.54457 2.98472 5.10772 5.73421C0.639809 9.17105 -0.391236 15.3574 2.70193 19.8253L22.6106 49.3371L17.1367 45.4965C13.3562 43.0907 8.54457 42.747 5.10772 45.4965C0.639809 48.9333 -0.391236 55.1197 2.70193 59.5876L24.0822 91.2807L2.35822 122.244C-0.0475723 126.024 -0.391258 130.836 2.35822 134.273C5.79508 138.74 11.9814 139.771 16.4493 136.678L23.4344 131.966L2.35822 162.006C-0.0475723 165.786 -0.391258 170.598 2.35822 174.035C5.79508 178.503 11.9814 179.534 16.4493 176.441L59.7537 147.227C60.7847 146.54 61.8158 145.509 62.5031 144.478L64.2216 142.072C66.2837 139.323 70.0642 139.323 72.1263 142.072L73.5011 144.134C74.1885 145.165 75.2195 146.196 76.2505 146.884L119.211 177.128C123.335 179.877 128.834 179.534 132.271 176.097C135.708 172.66 136.395 167.161 133.646 163.037L113.72 133.5L119.211 137.366C123.335 140.115 128.834 139.771 132.271 136.335C135.708 132.898 136.395 127.399 133.646 123.275L112.247 91.5544L134.333 59.9313C137.083 55.8071 136.739 50.3081 133.302 46.8713C129.178 43.4344 123.679 43.0907 119.555 45.8402ZM68.4394 109.91C78.882 109.91 87.3475 101.445 87.3475 91.0021C87.3475 80.5594 78.882 72.094 68.4394 72.094C57.9967 72.094 49.5312 80.5594 49.5312 91.0021C49.5312 101.445 57.9967 109.91 68.4394 109.91Z" fill="#F9F9F9"/>
<path d="M228.754 179.661H199.862V0.422852H228.754V179.661Z" fill="#F9F9F9"/>
<path d="M394.351 179.661H365.459V107.431C365.459 94.9467 362.427 85.5835 356.363 79.3413C350.478 73.0992 340.58 69.9781 326.669 69.9781C312.222 69.9781 301.522 73.7234 294.566 81.214C287.789 88.5262 284.4 99.4054 284.4 113.851L279.317 114.119L277.98 87.902H283.865C285.292 80.4114 288.146 73.3667 292.426 66.7679C296.885 59.9907 302.948 54.5511 310.617 50.4492C318.465 46.1688 328.006 44.0287 339.242 44.0287C351.548 44.0287 361.803 46.5255 370.007 51.5192C378.211 56.5129 384.275 63.2009 388.198 71.5833C392.3 79.9656 394.351 89.3288 394.351 99.6729V179.661ZM284.4 179.661H255.508V46.7039H281.993V88.437L284.4 89.7746V179.661Z" fill="#F9F9F9"/>
<path d="M459.154 179.661H430.262V53.9269C430.262 42.6911 432.669 33.1495 437.485 25.3022C442.478 17.2766 449.701 11.1237 459.154 6.84334C468.606 2.56301 480.11 0.422852 493.664 0.422852H506.772V21.8245H489.116C477.702 21.8245 469.409 23.9646 464.237 28.245C459.065 32.3469 457.37 40.1942 459.154 51.7868V179.661ZM506.772 70.7807H410.198V46.7039H506.772V70.7807ZM551.716 179.661H522.824V0.422852H551.716V179.661Z" fill="#F9F9F9"/>
<path d="M633.79 182.337C621.306 182.337 610.962 179.84 602.758 174.846C594.554 169.852 588.401 163.164 584.299 154.782C580.197 146.4 578.146 137.037 578.146 126.692V46.7039H606.771V118.934C606.771 131.24 609.803 140.603 615.866 147.024C622.109 153.266 632.274 156.387 646.364 156.387C661.166 156.387 671.956 152.731 678.734 145.419C685.689 137.928 689.167 126.96 689.167 112.514L694.25 112.246L695.855 138.463H689.702C688.454 145.954 685.6 152.999 681.141 159.597C676.683 166.196 670.53 171.636 662.682 175.916C655.013 180.197 645.383 182.337 633.79 182.337ZM718.059 179.661H691.575V137.928L689.167 136.591V46.7039H718.059V179.661Z" fill="#F9F9F9"/>
<path d="M766.244 179.661H731.734L788.983 113.851V112.246L731.734 46.7039H766.779L810.92 96.9977H812.525L856.131 46.7039H890.909L833.659 111.711V113.316L890.909 179.661H855.863L811.723 128.833H809.85L766.244 179.661Z" fill="#F9F9F9"/>
<path d="M926.913 179.661H892.403L949.652 113.851V112.246L892.403 46.7039H927.448L971.589 96.9977H973.194L1016.8 46.7039H1051.58L994.328 111.711V113.316L1051.58 179.661H1016.53L972.391 128.833H970.519L926.913 179.661Z" fill="#F9F9F9"/>
</svg>
