<svg width="104" height="104" viewBox="0 0 104 104" fill="none" xmlns="http://www.w3.org/2000/svg">
<g filter="url(#filter0_f_188_211)">
<rect x="10" y="10" width="84" height="84" rx="24" fill="#1877F2"/>
<path d="M92 52.0132C92 72.2216 77.0247 88.9284 57.5705 91.6395C55.7515 91.8918 53.8905 92.0236 52.0014 92.0236C49.8208 92.0236 47.6795 91.8497 45.5942 91.5133C26.5465 88.4461 12 71.9273 12 52.0132C12 29.9151 29.9098 12 51.9986 12C74.0874 12 92 29.9151 92 52.0132Z" fill="#1877F2"/>
<path d="M57.5706 44.127V52.8434H68.3502L66.6433 64.5849H57.5706V91.637C55.7516 91.8893 53.8906 92.0211 52.0015 92.0211C49.8209 92.0211 47.6796 91.8473 45.5943 91.5108V64.5849H35.6528V52.8434H45.5943V42.1784C45.5943 35.5619 50.9561 30.1958 57.5734 30.1958V30.2014C57.5931 30.2014 57.6099 30.1958 57.6295 30.1958H68.353V40.3505H61.346C59.2635 40.3505 57.5734 42.0411 57.5734 44.1242L57.5706 44.127Z" fill="white"/>
</g>
<defs>
<filter id="filter0_f_188_211" x="0.2" y="0.2" width="103.6" height="103.6" filterUnits="userSpaceOnUse" color-interpolation-filters="sRGB">
<feFlood flood-opacity="0" result="BackgroundImageFix"/>
<feBlend mode="normal" in="SourceGraphic" in2="BackgroundImageFix" result="shape"/>
<feGaussianBlur stdDeviation="4.9" result="effect1_foregroundBlur_188_211"/>
</filter>
</defs>
</svg>
