<svg width="104" height="104" viewBox="0 0 104 104" fill="none" xmlns="http://www.w3.org/2000/svg">
<g filter="url(#filter0_f_188_237)">
<rect x="10" y="10" width="84" height="84" rx="24" fill="#FEF901"/>
<path d="M52.1036 12.2412H52.2874C74.5169 12.2412 92.5629 30.2926 92.5629 52.5285V52.7124C92.5629 74.9484 74.5169 92.9998 52.2874 92.9998H52.1036C29.8742 92.9998 11.8281 74.9484 11.8281 52.7124V52.5285C11.8281 30.2926 29.8742 12.2412 52.1036 12.2412Z" fill="#FFFA00"/>
<path d="M64.8263 45.2317C64.8206 45.7721 64.764 46.3126 64.7131 46.853C64.6961 47.0312 64.6905 47.2123 64.6877 47.3905C64.682 47.6989 64.9281 47.979 65.2364 47.9592C65.3835 47.9507 65.5334 47.9111 65.6748 47.863C66.1472 47.6961 66.6139 47.5179 67.0834 47.3396C67.5077 47.1755 67.9405 47.0284 68.3789 46.9095C68.8569 46.7794 69.335 46.6832 69.8215 46.7624C70.8114 46.9237 71.4564 47.9904 71.0943 48.9269C70.9925 49.19 70.8369 49.4164 70.6502 49.6257C70.3928 49.9115 70.1015 50.1548 69.7847 50.3699C69.4113 50.6217 69.0351 50.8678 68.6589 51.1168C68.031 51.5299 67.4031 51.9401 66.778 52.3589C66.5177 52.5315 66.266 52.7154 66.0199 52.905C65.8842 53.0097 65.7569 53.1313 65.6409 53.2586C65.4203 53.5048 65.2986 53.8188 65.3184 54.1471C65.3382 54.4951 65.3976 54.8346 65.4938 55.1685C65.7908 56.2097 66.2462 57.1773 66.7978 58.1025C68.2771 60.5726 70.373 62.5022 72.8678 64.0781C73.5523 64.511 74.2849 64.8619 75.0061 65.2325C75.108 65.2863 75.207 65.34 75.306 65.3994C75.405 65.4589 75.4927 65.5381 75.5577 65.6343C75.6596 65.7786 75.6737 65.9314 75.586 66.0898C75.5125 66.2256 75.405 66.3303 75.289 66.4265C75.1589 66.534 75.0175 66.6246 74.8704 66.7066C74.0275 67.1848 73.1224 67.5413 72.1861 67.7903C71.7335 67.9119 71.281 68.0392 70.8312 68.1722C70.554 68.2543 70.2938 68.3759 70.0364 68.5089C69.6037 68.7324 69.3576 69.0918 69.2671 69.5586C69.2162 69.8189 69.185 70.0849 69.1369 70.3452C69.0181 71.0044 68.7806 71.2449 68.1357 71.3581C67.9094 71.3977 67.6774 71.4203 67.4483 71.4345C66.8713 71.4656 66.2943 71.4826 65.7173 71.5137C65.7003 71.5137 65.6833 71.5137 65.6692 71.5137C63.3639 71.6495 61.1351 72.388 59.1579 73.582C59.0533 73.6442 58.9486 73.7093 58.8411 73.7715C58.0406 74.2554 57.226 74.7165 56.352 75.0561C55.3762 75.4352 54.3692 75.6615 53.3255 75.7549C52.4458 75.8341 51.5689 75.8228 50.6949 75.7238C49.3853 75.5767 48.1436 75.1947 46.9697 74.5949C46.4238 74.3148 45.8977 74.0035 45.3773 73.6838C45.349 73.6668 45.3207 73.6499 45.2896 73.6301C43.2135 72.3653 40.8516 71.5986 38.4219 71.4995C38.405 71.4995 38.388 71.4995 38.371 71.4995C37.8619 71.4797 37.3556 71.4599 36.8465 71.4288C36.5495 71.4118 36.2525 71.3722 35.9611 71.293C35.5906 71.1912 35.3219 70.8658 35.2512 70.4895C35.2116 70.2829 35.1804 70.0764 35.1437 69.8698C35.1352 69.8246 35.1352 69.7765 35.1267 69.7312C35.0418 69.1257 34.742 68.6815 34.1735 68.424C33.8256 68.2656 33.4692 68.1383 33.1015 68.0364C32.4679 67.861 31.8286 67.7054 31.2092 67.4818C30.6633 67.2866 30.1372 67.0546 29.6309 66.7773C29.4781 66.6953 29.331 66.6019 29.1896 66.5057C29.0934 66.4406 29.0029 66.3671 28.9237 66.285C28.6692 66.0191 28.6946 65.6711 28.9831 65.4447C29.15 65.3117 29.3452 65.224 29.5347 65.1306C30.8556 64.4827 32.1087 63.7245 33.274 62.8247C35.0334 61.4695 36.524 59.8652 37.6526 57.9327C38.0542 57.2396 38.388 56.5096 38.6624 55.757C38.8434 55.259 38.9905 54.761 39.0272 54.2376C39.0527 53.8528 38.9226 53.4708 38.6595 53.1907C38.47 52.9898 38.2494 52.8286 38.0259 52.6673C37.6922 52.4296 37.3556 52.1948 37.0162 51.9713C36.2864 51.4903 35.5538 51.0178 34.824 50.5396C34.5044 50.3302 34.1961 50.1039 33.9189 49.8408C33.7181 49.6484 33.5371 49.4418 33.3928 49.2013C33.093 48.6977 33.0703 48.1799 33.2938 47.648C33.4267 47.3311 33.6757 47.0623 33.9868 46.918C34.4309 46.7143 34.8948 46.6889 35.3615 46.7652C35.865 46.8473 36.3486 47.0029 36.8266 47.1755C37.316 47.3509 37.7968 47.5433 38.2833 47.7272C38.5096 47.8121 38.7387 47.897 38.9791 47.9338C39.0357 47.9423 39.0923 47.9592 39.1489 47.9564C39.4289 47.9479 39.6608 47.8574 39.658 47.4811C39.658 47.3 39.6524 47.1161 39.6439 46.935C39.6014 46.0296 39.5477 45.1242 39.5251 44.2188C39.4742 42.0628 39.4826 39.8984 40.0455 37.8047C40.3906 36.523 40.9874 35.3318 41.7936 34.2736C43.4652 32.0752 45.6714 30.6803 48.3105 29.9362C49.753 29.5288 51.2267 29.3958 52.7202 29.4411C54.1316 29.4835 55.5374 29.724 56.8724 30.188C58.4564 30.7426 59.8961 31.5461 61.1209 32.6863C62.5125 33.9822 63.5846 35.4959 64.1672 37.3293C64.4303 38.1583 64.5972 39.0071 64.699 39.8673C64.9111 41.6469 64.8517 43.4379 64.8348 45.2261L64.8263 45.2317Z" fill="white"/>
<path d="M52.1658 76.9885C51.634 76.9885 51.0966 76.9574 50.5649 76.898C49.1336 76.7367 47.742 76.3151 46.4352 75.6446C45.8525 75.3447 45.2868 75.0108 44.7636 74.6911L44.6787 74.6401C42.7214 73.4462 40.5405 72.7699 38.3767 72.6822H38.3258C37.8761 72.6624 37.3358 72.6398 36.7814 72.6087C36.3656 72.5832 35.9951 72.5266 35.6528 72.4332C34.8637 72.2182 34.2527 71.542 34.0943 70.713C34.0632 70.5574 34.0378 70.3989 34.0123 70.2433L33.984 70.0707C33.9755 70.0198 33.9699 69.9632 33.9642 69.9095C33.9274 69.6492 33.8539 69.5784 33.6927 69.5049C33.4042 69.3747 33.0987 69.2644 32.7875 69.1766C32.6405 69.1342 32.4934 69.0946 32.3435 69.055C31.8457 68.922 31.3308 68.7805 30.8132 68.5966C30.2023 68.3788 29.614 68.1156 29.0652 67.8186C28.8842 67.7195 28.7032 67.6092 28.525 67.4875C28.3581 67.3715 28.2053 67.247 28.0724 67.1084C27.716 66.7377 27.5378 66.2652 27.5689 65.7758C27.6029 65.2863 27.8433 64.8421 28.2449 64.5195C28.4938 64.3215 28.7427 64.2026 28.9436 64.1036L29.0115 64.0696C30.3041 63.4359 31.4921 62.7031 32.55 61.8882C34.2895 60.5471 35.6246 59.0588 36.6287 57.3358C36.9738 56.7444 37.2849 56.0739 37.548 55.3495C37.7318 54.8459 37.8195 54.4894 37.8421 54.1584C37.845 54.0961 37.828 54.0367 37.7941 54.0028C37.6781 53.8811 37.5112 53.7566 37.333 53.6321C36.9766 53.3775 36.657 53.1568 36.3571 52.9616C35.9102 52.6673 35.4605 52.3759 35.0136 52.0845L34.1679 51.5327C33.7379 51.2498 33.3957 50.9867 33.0959 50.7037C32.7932 50.418 32.5556 50.1265 32.3689 49.8125C31.8768 48.992 31.8174 48.0866 32.1964 47.1925C32.4453 46.6012 32.9148 46.1117 33.4834 45.8485C34.1028 45.5628 34.7986 45.4807 35.5454 45.6052C36.1733 45.7099 36.7418 45.8995 37.2199 46.0721C37.548 46.1909 37.8704 46.3154 38.1957 46.4399C38.2749 46.471 38.3541 46.5021 38.4333 46.5304L38.422 46.3041C38.388 45.6363 38.3541 44.9431 38.3371 44.2556C38.2862 42.0883 38.2862 39.7824 38.8972 37.5047C39.2762 36.0901 39.9324 34.7659 40.8461 33.5663C42.6111 31.2462 45.0125 29.6448 47.9824 28.8073C49.4589 28.3914 51.0203 28.2159 52.7485 28.2669C54.3353 28.315 55.8514 28.5894 57.2543 29.0817C59.0759 29.7183 60.6429 30.6435 61.9158 31.829C63.5705 33.371 64.6707 35.0573 65.2817 36.9785C65.5504 37.8273 65.7399 38.7299 65.8616 39.7343C66.0567 41.3668 66.0341 42.9909 66.0143 44.564L66.0058 45.2431C66.0002 45.6788 65.9662 46.1004 65.9295 46.5106C66.1755 46.4172 66.4216 46.3239 66.6564 46.2333C67.1684 46.0381 67.6294 45.8853 68.065 45.7665C68.6222 45.6137 69.2869 45.4751 70.0082 45.5939C70.8426 45.7297 71.5695 46.2362 71.9995 46.9831C72.4209 47.7159 72.4917 48.5789 72.1975 49.3485C72.0532 49.7219 71.8354 50.07 71.53 50.4095C71.2245 50.749 70.8709 51.0546 70.4466 51.3432C70.1553 51.5412 69.8611 51.7336 69.5669 51.9289L68.6901 52.506C68.2715 52.7805 67.85 53.0578 67.4342 53.335C67.2108 53.485 66.976 53.6519 66.7412 53.8358C66.6677 53.8924 66.5913 53.9632 66.5178 54.0452C66.5008 54.065 66.4952 54.0763 66.4952 54.0792C66.5093 54.3281 66.5517 54.58 66.6281 54.8403C66.8798 55.7145 67.2645 56.5832 67.8104 57.4942C69.1031 59.6502 70.9614 61.4779 73.4958 63.0765C73.9879 63.3878 74.5141 63.6537 75.0713 63.9395C75.2297 64.0187 75.3881 64.1008 75.5436 64.1828C75.6653 64.2451 75.7841 64.313 75.9 64.3809C76.1461 64.5252 76.3554 64.7176 76.5223 64.9552C76.8815 65.4674 76.9183 66.1011 76.6241 66.65C76.4459 66.9782 76.2055 67.1989 76.0415 67.3347C75.8265 67.513 75.6144 67.6403 75.4531 67.7308C74.5508 68.243 73.5552 68.6447 72.4888 68.9277C72.09 69.0323 71.6685 69.1512 71.1679 69.3011C70.9671 69.3606 70.7578 69.4624 70.5796 69.5558C70.5032 69.5954 70.4579 69.6265 70.4268 69.785C70.4014 69.9123 70.3844 70.0396 70.3646 70.1698C70.3448 70.2999 70.325 70.4272 70.3023 70.5545C70.0959 71.7004 69.4736 72.3257 68.3365 72.521C68.0791 72.5662 67.8019 72.5974 67.5134 72.6115C67.2277 72.6285 66.9421 72.6398 66.6536 72.6511C66.3622 72.6624 66.0709 72.6738 65.7824 72.6907H65.7513C63.6893 72.8152 61.6244 73.4716 59.7661 74.5949L59.4493 74.7845C58.6431 75.2711 57.7607 75.7776 56.7763 76.1595C55.7298 76.5669 54.604 76.8273 53.4302 76.9348C53.0116 76.9716 52.5873 76.9914 52.163 76.9914L52.1658 76.9885ZM36.3967 70.1811C36.5495 70.215 36.7192 70.2348 36.9172 70.2462C37.4518 70.2773 37.9751 70.2999 38.4163 70.3141H38.4701C41.0356 70.4216 43.6067 71.2166 45.9063 72.6172L45.9968 72.6738C46.5512 73.0133 47.0235 73.2906 47.5101 73.5395C48.5651 74.0799 49.6795 74.4195 50.8279 74.5468C51.6284 74.6373 52.4317 74.6458 53.2209 74.5751C54.1882 74.4874 55.0735 74.2837 55.9249 73.9526C56.7396 73.6357 57.5146 73.1915 58.233 72.7586L58.5498 72.5662C60.7363 71.2449 63.1745 70.4725 65.6042 70.331H65.6523C65.9577 70.3112 66.2604 70.2971 66.563 70.2858C66.8374 70.2745 67.1146 70.2631 67.389 70.249C67.587 70.2377 67.7737 70.2179 67.9434 70.1896C67.9547 70.1896 67.9632 70.1867 67.9745 70.1839C67.9773 70.1698 67.9801 70.1528 67.9858 70.133C68.0056 70.0255 68.0197 69.918 68.0367 69.8104C68.0622 69.6492 68.0848 69.4879 68.1159 69.3294C68.28 68.4891 68.7608 67.8412 69.5019 67.4564C69.7621 67.3206 70.1129 67.1508 70.506 67.0348C71.0293 66.8792 71.4705 66.7547 71.892 66.6444C72.568 66.4661 73.2073 66.2284 73.7984 65.9399C73.2837 65.6767 72.7575 65.4023 72.2428 65.0769C69.3888 63.2746 67.2787 61.1922 65.7909 58.7108C65.1375 57.6215 64.6707 56.569 64.3624 55.4938C64.2408 55.0666 64.1673 54.6366 64.1447 54.2122C64.1107 53.5727 64.3313 52.9531 64.7698 52.4664C64.9366 52.2797 65.1177 52.1099 65.3044 51.9685C65.5816 51.7534 65.8587 51.5554 66.1274 51.3743C66.5489 51.0914 66.976 50.8113 67.4003 50.534L68.2771 49.9568C68.5628 49.77 68.8457 49.5833 69.1285 49.3909C69.3916 49.2127 69.6037 49.0316 69.7791 48.8363C69.8894 48.7119 69.9601 48.6072 69.9997 48.5025C70.0535 48.361 69.9997 48.228 69.9601 48.163C69.8866 48.0356 69.7678 47.9479 69.6405 47.9281C69.3661 47.8829 69.0239 47.9592 68.6958 48.0498C68.3365 48.1488 67.949 48.2761 67.5106 48.4459C67.0524 48.6213 66.563 48.8081 66.0709 48.9806C65.8022 49.074 65.5561 49.1278 65.3129 49.1419C64.849 49.1674 64.3879 49.0005 64.0485 48.6751C63.6949 48.3356 63.4998 47.8602 63.5082 47.3707C63.5111 47.2038 63.5167 46.9803 63.5394 46.7483L63.5591 46.5219C63.6016 46.0692 63.6412 45.642 63.6468 45.2233L63.6553 44.5357C63.6751 42.9711 63.6949 41.4913 63.5195 40.0172C63.4177 39.1628 63.2593 38.4017 63.0359 37.6971C62.5522 36.1721 61.6612 34.8197 60.312 33.5606C59.2654 32.5845 58.0124 31.8517 56.4793 31.3141C55.3055 30.9038 54.027 30.6718 52.6835 30.6322C51.1985 30.5841 49.8719 30.7341 48.6301 31.0849C46.1297 31.7894 44.2007 33.0711 42.7327 35.0008C42.0057 35.9543 41.4853 37.0068 41.1855 38.1215C40.6565 40.0936 40.6565 42.2071 40.7046 44.2018C40.7188 44.8583 40.7527 45.5345 40.7866 46.1881L40.8206 46.8897C40.8291 47.0878 40.8347 47.2859 40.8376 47.4839C40.8432 48.4487 40.1785 49.1165 39.1829 49.1476C39.0075 49.1476 38.8745 49.1249 38.801 49.1108C38.4305 49.0542 38.1165 48.9354 37.8648 48.842C37.6951 48.7769 37.5253 48.7119 37.3556 48.6468C37.0445 48.528 36.7334 48.4091 36.4222 48.2959C36.0489 48.1601 35.6048 48.013 35.1663 47.9394C34.7958 47.88 34.595 47.9451 34.4762 47.9989C34.4479 48.013 34.4026 48.0554 34.3772 48.1149C34.2838 48.3356 34.3121 48.4544 34.3998 48.6015C34.4762 48.7288 34.5837 48.8562 34.7251 48.992C34.9203 49.1759 35.155 49.357 35.4634 49.5578L36.3034 50.1067C36.756 50.401 37.2086 50.6952 37.6583 50.9923C37.9836 51.2074 38.3258 51.4422 38.7077 51.7138C38.9707 51.9034 39.2536 52.1099 39.5138 52.3872C39.9975 52.9022 40.2492 53.6067 40.2011 54.3253C40.1531 55.044 39.9437 55.6891 39.7684 56.1701C39.4544 57.0274 39.0867 57.8224 38.6709 58.5354C37.5253 60.499 35.9527 62.2589 33.9925 63.7697C32.9544 64.5704 31.8032 65.3004 30.5671 65.9399C30.8981 66.1011 31.246 66.2483 31.6081 66.3756C32.038 66.5284 32.4849 66.65 32.9601 66.7774C33.1128 66.8198 33.2684 66.8594 33.4212 66.9018C33.8454 67.0207 34.264 67.1706 34.6629 67.3517C35.5878 67.7705 36.1563 68.5372 36.3006 69.5699C36.3062 69.6067 36.3091 69.6435 36.3119 69.6774V69.6718L36.3402 69.8557C36.3572 69.966 36.3769 70.0764 36.3967 70.1839V70.1811Z" fill="#1D1D1B"/>
</g>
<defs>
<filter id="filter0_f_188_237" x="0.2" y="0.2" width="103.6" height="103.6" filterUnits="userSpaceOnUse" color-interpolation-filters="sRGB">
<feFlood flood-opacity="0" result="BackgroundImageFix"/>
<feBlend mode="normal" in="SourceGraphic" in2="BackgroundImageFix" result="shape"/>
<feGaussianBlur stdDeviation="4.9" result="effect1_foregroundBlur_188_237"/>
</filter>
</defs>
</svg>
