<svg width="104" height="104" viewBox="0 0 104 104" fill="none" xmlns="http://www.w3.org/2000/svg">
<g filter="url(#filter0_f_188_231)">
<rect x="10" y="10" width="84" height="84" rx="24" fill="#017FBB"/>
<path d="M52.0911 12H51.9089C29.8679 12 12 29.8731 12 51.9206V52.1029C12 74.1504 29.8679 92.0235 51.9089 92.0235H52.0911C74.1321 92.0235 92 74.1504 92 52.1029V51.9206C92 29.8731 74.1321 12 52.0911 12Z" fill="#007EBB"/>
<path d="M31.0789 38.6005C30.0251 37.622 29.501 36.4109 29.501 34.9698C29.501 33.5287 30.0279 32.2643 31.0789 31.2831C32.1328 30.3046 33.4893 29.814 35.1514 29.814C36.8134 29.814 38.1167 30.3046 39.1678 31.2831C40.2216 32.2615 40.7457 33.4923 40.7457 34.9698C40.7457 36.4473 40.2188 37.622 39.1678 38.6005C38.1139 39.5789 36.777 40.0696 35.1514 40.0696C33.5258 40.0696 32.1328 39.5789 31.0789 38.6005ZM39.8601 44.2133V74.212H30.3838V44.2133H39.8601Z" fill="#FEFFFC"/>
<path d="M71.4051 47.1768C73.4707 49.4197 74.5022 52.4981 74.5022 56.4175V73.6822H65.5025V57.6343C65.5025 55.6578 64.9896 54.1214 63.9665 53.028C62.9435 51.9346 61.5646 51.3851 59.838 51.3851C58.1115 51.3851 56.7325 51.9318 55.7095 53.028C54.6865 54.1214 54.1736 55.6578 54.1736 57.6343V73.6822H45.1206V44.1293H54.1736V48.0488C55.0901 46.7423 56.3262 45.7105 57.8789 44.9508C59.4316 44.191 61.1778 43.8125 63.1201 43.8125C66.5787 43.8125 69.3422 44.9339 71.4051 47.1768Z" fill="#FEFFFC"/>
</g>
<defs>
<filter id="filter0_f_188_231" x="0.2" y="0.2" width="103.6" height="103.6" filterUnits="userSpaceOnUse" color-interpolation-filters="sRGB">
<feFlood flood-opacity="0" result="BackgroundImageFix"/>
<feBlend mode="normal" in="SourceGraphic" in2="BackgroundImageFix" result="shape"/>
<feGaussianBlur stdDeviation="4.9" result="effect1_foregroundBlur_188_231"/>
</filter>
</defs>
</svg>
