<svg width="104" height="104" viewBox="0 0 104 104" fill="none" xmlns="http://www.w3.org/2000/svg">
<g filter="url(#filter0_f_188_227)">
<rect x="10" y="10" width="84" height="84" rx="24" fill="#01B0F2"/>
<path d="M52.5803 12H52.3958C30.0858 12 12 30.0912 12 52.4078V52.5922C12 74.9088 30.0858 93 52.3958 93H52.5803C74.8903 93 92.9761 74.9088 92.9761 52.5922V52.4078C92.9761 30.0912 74.8903 12 52.5803 12Z" fill="#00B0F2"/>
<path d="M27.3368 51.1193C27.4503 51.0625 27.5638 51.0086 27.6745 50.9575C29.5979 50.0664 31.5469 49.2321 33.4931 48.3978C33.5981 48.3978 33.7739 48.2758 33.8732 48.236C34.0236 48.1708 34.174 48.1083 34.3243 48.0431L35.1896 47.6713C35.7684 47.4244 36.3443 47.1775 36.923 46.9306C38.0777 46.4369 39.2323 45.9431 40.3869 45.4465C42.6963 44.4589 45.0085 43.4685 47.3178 42.4809C49.6271 41.4934 51.9392 40.503 54.2485 39.5154C56.5578 38.5278 58.8699 37.5374 61.1792 36.5499C63.4886 35.5623 65.8008 34.5719 68.1101 33.5844C68.6236 33.363 69.1796 33.0338 69.73 32.9373C70.1924 32.855 70.6434 32.6961 71.1087 32.6081C71.991 32.4407 72.9641 32.3726 73.8095 32.7387C74.1017 32.8664 74.3713 33.0452 74.5954 33.2694C75.6678 34.3307 75.5174 36.0731 75.2904 37.5658C73.7102 47.9693 72.13 58.3756 70.547 68.779C70.3314 70.2065 70.0363 71.7729 68.91 72.6754C67.9568 73.4388 66.6007 73.5239 65.4234 73.2004C64.246 72.874 63.2077 72.1901 62.1892 71.5175C57.965 68.7194 53.7379 65.9214 49.5136 63.1233C48.5093 62.4592 47.3915 61.5908 47.4029 60.3848C47.4086 59.6583 47.8426 59.0113 48.2852 58.4352C51.9562 53.6449 57.2529 50.3531 61.1934 45.7842C61.7495 45.14 62.1864 43.9765 61.4233 43.6047C60.9693 43.3834 60.4473 43.6842 60.0331 43.9708C54.8244 47.589 49.6186 51.2101 44.4099 54.8283C42.7105 56.0088 40.9289 57.2234 38.8806 57.5129C37.0479 57.774 35.2038 57.2632 33.4307 56.741C31.9441 56.304 30.4603 55.8556 28.9823 55.393C28.1964 55.149 27.385 54.8851 26.7779 54.3317C26.1708 53.7783 25.8219 52.8475 26.1879 52.1097C26.4177 51.6471 26.8631 51.3548 27.3312 51.1164L27.3368 51.1193Z" fill="#FEFFFC"/>
</g>
<defs>
<filter id="filter0_f_188_227" x="0.2" y="0.2" width="103.6" height="103.6" filterUnits="userSpaceOnUse" color-interpolation-filters="sRGB">
<feFlood flood-opacity="0" result="BackgroundImageFix"/>
<feBlend mode="normal" in="SourceGraphic" in2="BackgroundImageFix" result="shape"/>
<feGaussianBlur stdDeviation="4.9" result="effect1_foregroundBlur_188_227"/>
</filter>
</defs>
</svg>
