<svg width="104" height="104" viewBox="0 0 104 104" fill="none" xmlns="http://www.w3.org/2000/svg">
<g filter="url(#filter0_f_188_204)">
<rect x="10" y="10" width="84" height="84" rx="24" fill="#010101"/>
<path d="M51.7238 12H51.5394C29.2294 12 11.1436 30.0912 11.1436 52.4078V52.5922C11.1436 74.9088 29.2294 93 51.5394 93H51.7238C74.0339 93 92.1197 74.9088 92.1197 52.5922V52.4078C92.1197 30.0912 74.0339 12 51.7238 12Z" fill="black"/>
<path d="M72.1617 44.1698V51.8177C70.8255 51.6872 69.0892 51.3835 67.1686 50.6797C64.6607 49.7603 62.7939 48.5031 61.5712 47.5298V62.9874L61.54 62.9391C61.5599 63.2456 61.5712 63.5578 61.5712 63.8728C61.5712 71.5491 55.327 77.798 47.6501 77.798C39.9732 77.798 33.729 71.5491 33.729 63.8728C33.729 56.1965 39.9732 49.9448 47.6501 49.9448C48.4019 49.9448 49.1395 50.0043 49.8601 50.1207V57.658C49.1679 57.4111 48.4246 57.2777 47.6501 57.2777C44.0159 57.2777 41.0569 60.2347 41.0569 63.8728C41.0569 67.5109 44.0159 70.4679 47.6501 70.4679C51.2843 70.4679 54.2433 67.508 54.2433 63.8728C54.2433 63.7366 54.2404 63.6004 54.2319 63.4641V33.4258H61.8719C61.9003 34.0728 61.9258 34.7255 61.9542 35.3725C62.0053 36.6467 62.4592 37.8698 63.2507 38.8716C64.1784 40.0493 65.5487 41.4171 67.4721 42.5097C69.2736 43.5313 70.9645 43.9683 72.1617 44.1755V44.1698Z" fill="#FF004F"/>
<path d="M69.5342 37.9606V45.6085C68.198 45.478 66.4618 45.1744 64.5411 44.4706C62.0332 43.5511 60.1665 42.294 58.9437 41.3206V56.7782L58.9125 56.73C58.9324 57.0365 58.9437 57.3486 58.9437 57.6636C58.9437 65.3399 52.6996 71.5888 45.0227 71.5888C37.3458 71.5888 31.1016 65.3399 31.1016 57.6636C31.1016 49.9873 37.3458 43.7356 45.0227 43.7356C45.7745 43.7356 46.5121 43.7952 47.2327 43.9115V51.4488C46.5404 51.2019 45.7972 51.0685 45.0227 51.0685C41.3885 51.0685 38.4295 54.0255 38.4295 57.6636C38.4295 61.3017 41.3885 64.2587 45.0227 64.2587C48.6568 64.2587 51.6158 61.2989 51.6158 57.6636C51.6158 57.5274 51.613 57.3912 51.6045 57.255V27.2109H59.2445C59.2728 27.858 59.2984 28.5107 59.3268 29.1577C59.3778 30.4319 59.8317 31.655 60.6233 32.6567C61.551 33.8344 62.9212 35.2022 64.8447 36.2948C66.6462 37.3136 68.337 37.7535 69.5342 37.9606Z" fill="#00F7EF"/>
<path d="M71.2056 41.3036V48.9515C69.8694 48.821 68.1332 48.5173 66.2125 47.8135C63.7046 46.8941 61.8379 45.6369 60.6152 44.6636V60.1212L60.5839 60.0729C60.6038 60.3794 60.6152 60.6916 60.6152 61.0066C60.6152 68.6829 54.3709 74.9318 46.694 74.9318C39.0172 74.9318 32.7729 68.6829 32.7729 61.0066C32.7729 53.3303 39.0172 47.0785 46.694 47.0785C47.4459 47.0785 48.1835 47.1381 48.9041 47.2545V54.7917C48.2118 54.5449 47.4685 54.4115 46.694 54.4115C43.0599 54.4115 40.1009 57.3685 40.1009 61.0066C40.1009 64.6447 43.0599 67.6017 46.694 67.6017C50.3282 67.6017 53.2872 64.6418 53.2872 61.0066C53.2872 60.8704 53.2844 60.7341 53.2759 60.5979V30.5596H60.9159C60.9442 31.2066 60.9698 31.8593 60.9982 32.5063C61.0492 33.7805 61.5031 35.0036 62.2946 36.0054C63.2223 37.183 64.5926 38.5509 66.5161 39.6434C68.3176 40.6622 70.0084 41.1021 71.2056 41.3092V41.3036Z" fill="white"/>
</g>
<defs>
<filter id="filter0_f_188_204" x="0.2" y="0.2" width="103.6" height="103.6" filterUnits="userSpaceOnUse" color-interpolation-filters="sRGB">
<feFlood flood-opacity="0" result="BackgroundImageFix"/>
<feBlend mode="normal" in="SourceGraphic" in2="BackgroundImageFix" result="shape"/>
<feGaussianBlur stdDeviation="4.9" result="effect1_foregroundBlur_188_204"/>
</filter>
</defs>
</svg>
