<svg width="104" height="104" viewBox="0 0 104 104" fill="none" xmlns="http://www.w3.org/2000/svg">
<g filter="url(#filter0_f_188_198)">
<rect x="10" y="10" width="84" height="84" rx="24" fill="#FF0209"/>
<path d="M92.0537 52.3224C92.0537 30.2096 74.1331 12.2837 52.0269 12.2837C29.9207 12.2837 12 30.2096 12 52.3224C12 74.4351 29.9207 92.361 52.0269 92.361C74.1331 92.361 92.0537 74.4351 92.0537 52.3224Z" fill="#FF0209"/>
<path d="M69.0181 70.0555C67.8255 70.1849 66.6048 70.2074 65.4347 70.2046C56.3077 70.1961 47.1806 70.1877 38.0563 70.1821C35.1846 70.1821 32.057 70.0892 29.8378 68.2633C27.3373 66.201 26.817 62.6251 26.6145 59.3896C26.3332 54.9555 26.3107 50.5074 26.5414 46.0705C26.6679 43.6341 26.8901 41.1385 27.9392 38.9327C28.693 37.3487 29.9503 35.9251 31.5591 35.1767C33.4295 34.3074 35.3871 34.4621 37.401 34.4593C42.2219 34.4537 47.0428 34.4508 51.8637 34.4452C56.8758 34.4396 61.8908 34.4368 66.9029 34.4312C69.2712 34.4312 71.8138 34.479 73.7461 35.8491C76.241 37.616 76.9188 40.9781 77.231 44.0195C77.8076 49.6211 77.816 55.2819 77.2535 60.8835C77.0201 63.1934 76.6319 65.6355 75.1102 67.3883C73.6026 69.127 71.3666 69.7966 69.0209 70.0527L69.0181 70.0555Z" fill="white"/>
<path d="M60.1894 52.322L46.5874 44.4668V60.1773L60.1894 52.322Z" fill="#FF0209"/>
</g>
<defs>
<filter id="filter0_f_188_198" x="0.2" y="0.2" width="103.6" height="103.6" filterUnits="userSpaceOnUse" color-interpolation-filters="sRGB">
<feFlood flood-opacity="0" result="BackgroundImageFix"/>
<feBlend mode="normal" in="SourceGraphic" in2="BackgroundImageFix" result="shape"/>
<feGaussianBlur stdDeviation="4.9" result="effect1_foregroundBlur_188_198"/>
</filter>
</defs>
</svg>
