<svg width="32" height="32" viewBox="0 0 32 32" fill="none" xmlns="http://www.w3.org/2000/svg">
<path d="M2.6665 16.0001C2.6665 9.71469 2.6665 6.57199 4.61913 4.61937C6.57175 2.66675 9.71444 2.66675 15.9998 2.66675C22.2852 2.66675 25.4279 2.66675 27.3805 4.61937C29.3332 6.57199 29.3332 9.71469 29.3332 16.0001C29.3332 22.2855 29.3332 25.4282 27.3805 27.3808C25.4279 29.3334 22.2852 29.3334 15.9998 29.3334C9.71444 29.3334 6.57175 29.3334 4.61913 27.3808C2.6665 25.4282 2.6665 22.2855 2.6665 16.0001Z" stroke="#515151" stroke-width="2"/>
<path d="M19.3331 12.6668L12.6665 19.3334M12.6665 12.6667L19.3331 19.3334" stroke="#515151" stroke-width="2" stroke-linecap="round"/>
</svg>
