<svg width="132" height="40" viewBox="0 0 132 40" fill="none" xmlns="http://www.w3.org/2000/svg">
<path fill-rule="evenodd" clip-rule="evenodd" d="M22.9753 15.1904L22.3462 15.6148L24.5361 12.4793C24.8264 12.0438 24.7901 11.463 24.4272 11.1001C23.9916 10.7371 23.4109 10.7008 22.9753 10.9912L18.4021 14.0763C18.2932 14.1489 18.1843 14.2578 18.1117 14.3667L17.9302 14.6208C17.7124 14.9111 17.3132 14.9111 17.0954 14.6208L16.9502 14.403C16.8776 14.2941 16.7687 14.1852 16.6599 14.1126L12.1592 10.9549C11.7599 10.7008 11.2518 10.6645 10.8888 10.9549C10.417 11.3178 10.3081 11.9712 10.6347 12.443L12.7372 15.5597L12.1592 15.1541C11.7599 14.9 11.2518 14.8637 10.8888 15.1541C10.417 15.5171 10.3081 16.1704 10.6347 16.6422L12.8927 19.9893L10.5984 23.2592C10.3444 23.6585 10.3081 24.1666 10.5984 24.5296C10.9614 25.0014 11.6147 25.1103 12.0866 24.7836L12.8242 24.286L10.5984 27.4584C10.3444 27.8577 10.3081 28.3658 10.5984 28.7288C10.9614 29.2006 11.6147 29.3095 12.0866 28.9828L16.6599 25.8977C16.7687 25.8251 16.8776 25.7162 16.9502 25.6073L17.1317 25.3532C17.3495 25.0629 17.7487 25.0629 17.9665 25.3532L18.1117 25.571C18.1843 25.6799 18.2932 25.7888 18.4021 25.8614L22.939 29.0554C23.3746 29.3458 23.9553 29.3095 24.3183 28.9465C24.6812 28.5836 24.7538 28.0029 24.4635 27.5673L22.3592 24.448L22.939 24.8562C23.3746 25.1466 23.9553 25.1103 24.3183 24.7473C24.6812 24.3844 24.7538 23.8036 24.4635 23.3681L22.2036 20.0182L24.5361 16.6785C24.8264 16.243 24.7901 15.6622 24.4272 15.2993C23.9916 14.9363 23.4109 14.9 22.9753 15.1904ZM17.5773 21.9569C18.6802 21.9569 19.5742 21.0629 19.5742 19.9601C19.5742 18.8573 18.6802 17.9632 17.5773 17.9632C16.4745 17.9632 15.5805 18.8573 15.5805 19.9601C15.5805 21.0629 16.4745 21.9569 17.5773 21.9569Z" fill="#00B8D9"/>
<path d="M34.5078 29.3231H31.4565V10.394H34.5078V29.3231Z" fill="#001F3F"/>
<path d="M51.9962 29.3231H48.9449V21.695C48.9449 20.3765 48.6247 19.3877 47.9844 18.7285C47.3628 18.0692 46.3175 17.7396 44.8483 17.7396C43.3227 17.7396 42.1926 18.1352 41.4581 18.9262C40.7423 19.6985 40.3845 20.8474 40.3845 22.373L39.8477 22.4013L39.7064 19.6325H40.328C40.4787 18.8415 40.78 18.0975 41.2321 17.4006C41.7029 16.6849 42.3433 16.1104 43.1532 15.6772C43.9819 15.2252 44.9896 14.9992 46.1762 14.9992C47.4758 14.9992 48.5588 15.2629 49.4252 15.7902C50.2916 16.3176 50.932 17.0239 51.3464 17.9091C51.7796 18.7944 51.9962 19.7832 51.9962 20.8756V29.3231ZM40.3845 29.3231H37.3332V15.2817H40.1302V19.689L40.3845 19.8303V29.3231Z" fill="#001F3F"/>
<path d="M58.8398 29.3231H55.7886V16.0445C55.7886 14.8579 56.0429 13.8502 56.5514 13.0215C57.0788 12.1739 57.8416 11.5241 58.8398 11.0721C59.8381 10.6201 61.0529 10.394 62.4844 10.394H63.8688V12.6542H62.0041C60.7987 12.6542 59.9229 12.8802 59.3766 13.3323C58.8304 13.7655 58.6515 14.5942 58.8398 15.8185V29.3231ZM63.8688 17.8244H53.6697V15.2817H63.8688V17.8244ZM68.6151 29.3231H65.5639V10.394H68.6151V29.3231Z" fill="#001F3F"/>
<path d="M77.2828 29.6056C75.9644 29.6056 74.872 29.3419 74.0056 28.8145C73.1392 28.2872 72.4894 27.5808 72.0562 26.6956C71.623 25.8104 71.4064 24.8215 71.4064 23.7291V15.2817H74.4294V22.9098C74.4294 24.2094 74.7496 25.1982 75.3899 25.8763C76.0492 26.5355 77.1228 26.8651 78.6107 26.8651C80.174 26.8651 81.3135 26.479 82.0292 25.7068C82.7638 24.9157 83.1311 23.7574 83.1311 22.2317L83.6679 22.2035L83.8374 24.9722H83.1876C83.0557 25.7633 82.7544 26.5073 82.2835 27.2042C81.8126 27.901 81.1628 28.4755 80.3341 28.9275C79.5242 29.3796 78.5071 29.6056 77.2828 29.6056ZM86.1823 29.3231H83.3853V24.9157L83.1311 24.7745V15.2817H86.1823V29.3231Z" fill="#001F3F"/>
<path d="M91.271 29.3231H87.6265L93.6725 22.373V22.2035L87.6265 15.2817H91.3275L95.9892 20.5931H96.1587L100.764 15.2817H104.437L98.3906 22.147V22.3165L104.437 29.3231H100.736L96.0739 23.9551H95.8762L91.271 29.3231Z" fill="#001F3F"/>
<path d="M108.239 29.3231H104.594L110.64 22.373V22.2035L104.594 15.2817H108.295L112.957 20.5931H113.127L117.732 15.2817H121.405L115.359 22.147V22.3165L121.405 29.3231H117.703L113.042 23.9551H112.844L108.239 29.3231Z" fill="#001F3F"/>
</svg>
