<svg width="132" height="40" viewBox="0 0 132 40" fill="none" xmlns="http://www.w3.org/2000/svg">
<rect width="131.799" height="40" fill="white"/>
<path fill-rule="evenodd" clip-rule="evenodd" d="M22.9755 15.1906L22.3464 15.6151L24.5362 12.4796C24.8266 12.044 24.7903 11.4633 24.4274 11.1003C23.9918 10.7374 23.4111 10.7011 22.9755 10.9914L18.4022 14.0766C18.2933 14.1492 18.1845 14.2581 18.1119 14.3669L17.9304 14.621C17.7126 14.9114 17.3134 14.9114 17.0956 14.621L16.9504 14.4032C16.8778 14.2943 16.7689 14.1855 16.66 14.1129L12.1593 10.9551C11.7601 10.7011 11.2519 10.6648 10.889 10.9551C10.4171 11.3181 10.3083 11.9714 10.6349 12.4433L12.7374 15.5599L12.1593 15.1543C11.7601 14.9003 11.2519 14.864 10.889 15.1543C10.4171 15.5173 10.3083 16.1706 10.6349 16.6425L12.8928 19.9895L10.5986 23.2594C10.3445 23.6587 10.3082 24.1668 10.5986 24.5298C10.9616 25.0016 11.6149 25.1105 12.0868 24.7839L12.8244 24.2862L10.5986 27.4587C10.3445 27.8579 10.3082 28.3661 10.5986 28.729C10.9616 29.2009 11.6149 29.3097 12.0868 28.9831L16.66 25.8979C16.7689 25.8253 16.8778 25.7165 16.9504 25.6076L17.1319 25.3535C17.3497 25.0631 17.7489 25.0631 17.9667 25.3535L18.1119 25.5713C18.1845 25.6802 18.2933 25.789 18.4022 25.8616L22.9392 29.0557C23.3748 29.346 23.9555 29.3097 24.3185 28.9468C24.6814 28.5838 24.754 28.0031 24.4637 27.5675L22.3594 24.4482L22.9392 24.8565C23.3748 25.1468 23.9555 25.1105 24.3185 24.7476C24.6814 24.3846 24.754 23.8039 24.4637 23.3683L22.2038 20.0184L24.5362 16.6788C24.8266 16.2432 24.7903 15.6625 24.4274 15.2995C23.9918 14.9366 23.4111 14.9003 22.9755 15.1906ZM17.5774 21.9569C18.6802 21.9569 19.5742 21.0629 19.5742 19.9601C19.5742 18.8573 18.6802 17.9632 17.5774 17.9632C16.4745 17.9632 15.5805 18.8573 15.5805 19.9601C15.5805 21.0629 16.4745 21.9569 17.5774 21.9569Z" fill="#00B8D9"/>
<path d="M34.5078 29.3233H31.4565V10.3943H34.5078V29.3233Z" fill="#001F3F"/>
<path d="M51.9962 29.3233H48.9449V21.6952C48.9449 20.3768 48.6247 19.3879 47.9844 18.7287C47.3628 18.0695 46.3175 17.7399 44.8483 17.7399C43.3227 17.7399 42.1926 18.1354 41.4581 18.9265C40.7423 19.6987 40.3845 20.8476 40.3845 22.3733L39.8477 22.4015L39.7064 19.6328H40.328C40.4787 18.8417 40.78 18.0977 41.2321 17.4009C41.7029 16.6851 42.3433 16.1107 43.1532 15.6775C43.9819 15.2254 44.9896 14.9994 46.1762 14.9994C47.4758 14.9994 48.5588 15.2631 49.4252 15.7905C50.2916 16.3178 50.932 17.0242 51.3464 17.9094C51.7796 18.7946 51.9962 19.7835 51.9962 20.8759V29.3233ZM40.3845 29.3233H37.3332V15.2819H40.1302V19.6893L40.3845 19.8305V29.3233Z" fill="#001F3F"/>
<path d="M58.8398 29.3233H55.7886V16.0447C55.7886 14.8581 56.0429 13.8505 56.5514 13.0217C57.0788 12.1742 57.8416 11.5244 58.8398 11.0723C59.8381 10.6203 61.0529 10.3943 62.4844 10.3943H63.8688V12.6545H62.0041C60.7987 12.6545 59.9229 12.8805 59.3766 13.3325C58.8304 13.7657 58.6515 14.5945 58.8398 15.8187V29.3233ZM63.8688 17.8246H53.6697V15.2819H63.8688V17.8246ZM68.6151 29.3233H65.5639V10.3943H68.6151V29.3233Z" fill="#001F3F"/>
<path d="M77.2828 29.6058C75.9644 29.6058 74.872 29.3422 74.0056 28.8148C73.1392 28.2874 72.4894 27.5811 72.0562 26.6959C71.623 25.8106 71.4064 24.8218 71.4064 23.7294V15.2819H74.4294V22.91C74.4294 24.2097 74.7496 25.1985 75.3899 25.8765C76.0492 26.5358 77.1228 26.8654 78.6107 26.8654C80.174 26.8654 81.3135 26.4793 82.0292 25.707C82.7638 24.916 83.1311 23.7576 83.1311 22.232L83.6679 22.2037L83.8374 24.9725H83.1876C83.0557 25.7635 82.7544 26.5075 82.2835 27.2044C81.8126 27.9013 81.1628 28.4757 80.3341 28.9278C79.5242 29.3798 78.5071 29.6058 77.2828 29.6058ZM86.1823 29.3233H83.3853V24.916L83.1311 24.7747V15.2819H86.1823V29.3233Z" fill="#001F3F"/>
<path d="M91.271 29.3233H87.6265L93.6725 22.3733V22.2037L87.6265 15.2819H91.3275L95.9892 20.5934H96.1587L100.764 15.2819H104.437L98.3906 22.1472V22.3167L104.437 29.3233H100.736L96.0739 23.9554H95.8762L91.271 29.3233Z" fill="#001F3F"/>
<path d="M108.239 29.3233H104.594L110.64 22.3733V22.2037L104.594 15.2819H108.295L112.957 20.5934H113.127L117.732 15.2819H121.405L115.359 22.1472V22.3167L121.405 29.3233H117.703L113.042 23.9554H112.844L108.239 29.3233Z" fill="#001F3F"/>
</svg>
