<svg width="16" height="16" viewBox="0 0 16 16" fill="none" xmlns="http://www.w3.org/2000/svg">
<path d="M1.33325 8.00008C1.33325 5.48592 1.33325 4.22885 2.1143 3.4478C2.89535 2.66675 4.15243 2.66675 6.66659 2.66675H9.33325C11.8474 2.66675 13.1045 2.66675 13.8855 3.4478C14.6666 4.22885 14.6666 5.48592 14.6666 8.00008C14.6666 10.5142 14.6666 11.7713 13.8855 12.5524C13.1045 13.3334 11.8474 13.3334 9.33325 13.3334H6.66659C4.15243 13.3334 2.89535 13.3334 2.1143 12.5524C1.33325 11.7713 1.33325 10.5142 1.33325 8.00008Z" stroke="#6E6E6E"/>
<path d="M4 5.33325L5.43926 6.53264C6.66369 7.55299 7.2759 8.06317 8 8.06317C8.7241 8.06317 9.33631 7.55299 10.5607 6.53264L12 5.33325" stroke="#6E6E6E" stroke-linecap="round"/>
</svg>
