<svg width="20" height="20" viewBox="0 0 20 20" fill="none" xmlns="http://www.w3.org/2000/svg">
<rect width="20" height="20" rx="10" fill="#6366F1"/>
<path d="M13.2242 6.92318H15.6V7.8342C15.6 9.06978 14.5943 10.0685 13.3501 10.0685H13.2242V6.92318ZM9.84308 5.59998H13.2242V14.2H12.8219C10.371 14.2 9.88068 12.5026 9.88068 10.9921L9.84308 5.59998ZM4.34998 7.54729C4.34998 9.08243 5.45599 9.64428 6.68784 9.83148H4.34998V14.225H6.59992C8.86259 14.225 9.12636 13.2264 9.12636 12.2777C9.12636 11.1168 8.32201 10.3057 7.07743 9.99348H9.12636V5.59998H6.87642C4.61406 5.59998 4.34998 6.59862 4.34998 7.54729Z" fill="white"/>
</svg>
