<svg width="15" height="20" viewBox="0 0 15 20" fill="none" xmlns="http://www.w3.org/2000/svg">
<path fill-rule="evenodd" clip-rule="evenodd" d="M12.9753 5.19039L12.3462 5.61482L14.5361 2.47931C14.8264 2.04376 14.7901 1.46303 14.4272 1.10007C13.9916 0.737107 13.4109 0.700809 12.9753 0.991178L8.40205 4.07633C8.29317 4.14892 8.18428 4.25781 8.11169 4.3667L7.93021 4.62077C7.71243 4.91114 7.31318 4.91114 7.0954 4.62077L6.95022 4.40299C6.87763 4.2941 6.76874 4.18522 6.65985 4.11263L2.15916 0.95488C1.7599 0.700808 1.25176 0.664512 0.888802 0.95488C0.416955 1.31784 0.308069 1.97117 0.634732 2.44301L2.73725 5.55969L2.15916 5.15409C1.7599 4.90002 1.25176 4.86373 0.888802 5.15409C0.416955 5.51705 0.308069 6.17038 0.634732 6.64223L2.89266 9.98927L0.598434 13.2592C0.344362 13.6585 0.308067 14.1666 0.598434 14.5296C0.961393 15.0014 1.61472 15.1103 2.08657 14.7836L2.82425 14.286L0.598434 17.4584C0.344362 17.8577 0.308067 18.3658 0.598434 18.7288C0.961393 19.2006 1.61472 19.3095 2.08657 18.9828L6.65985 15.8977C6.76874 15.8251 6.87763 15.7162 6.95022 15.6073L7.1317 15.3532C7.34947 15.0629 7.74873 15.0629 7.9665 15.3532L8.11169 15.571C8.18428 15.6799 8.29317 15.7888 8.40205 15.8614L12.939 19.0554C13.3746 19.3458 13.9553 19.3095 14.3183 18.9465C14.6812 18.5836 14.7538 18.0029 14.4635 17.5673L12.3592 14.448L12.939 14.8562C13.3746 15.1466 13.9553 15.1103 14.3183 14.7473C14.6812 14.3844 14.7538 13.8036 14.4635 13.3681L12.2036 10.0182L14.5361 6.67853C14.8264 6.24298 14.7901 5.66224 14.4272 5.29928C13.9916 4.93632 13.4109 4.90002 12.9753 5.19039ZM7.57733 11.9569C8.68016 11.9569 9.57418 11.0629 9.57418 9.96008C9.57418 8.85725 8.68016 7.96323 7.57733 7.96323C6.4745 7.96323 5.58048 8.85725 5.58048 9.96008C5.58048 11.0629 6.4745 11.9569 7.57733 11.9569Z" fill="#00B8D9"/>
</svg>
